<?xml version="1.0" encoding="utf-8"?>
<!-- Generator: Adobe Illustrator 23.0.0, SVG Export Plug-In . SVG Version: 6.00 Build 0)  -->
<svg version="1.1" id="Layer_1" xmlns="http://www.w3.org/2000/svg" xmlns:xlink="http://www.w3.org/1999/xlink" x="0px" y="0px"
	 viewBox="0 0 144 144" style="enable-background:new 0 0 144 144;" xml:space="preserve">
<style type="text/css">
	.st0{fill:#3399ff;stroke:#FFFFFF;stroke-width:0.302;stroke-miterlimit:10;}
	.st1{fill:#3399ff;}
</style>
<g>
	<path class="st0" d="M38.3,132.2"/>
	<g>
		<path class="st1" d="M110.8,27.4l0.9-1.2c0.1,0.1,11.1,8,17.4,4.5c-0.4-3.9-4.5-9.4-9.5-13.8c-3.4-3-7-5.4-10.2-6.7
			c-4.6-1.9-6.8-0.9-7.8,0.2l0,0L94.8,18l0,0L28.6,92.6l0.1,0.4L15,134.9L50.9,117c-5.9-2.1-10.6-5.2-13.8-9.1
			c2.6,6.5,2,10.4,0.4,12.8l-6.7,3.4c-4.3-1.4-6.6-5.2-7.2-6.5l6.7-20.4c1.9,4.5,4.2,7.8,6.5,10.3c0,0,0-0.1-0.1-0.1l2.1-1.6
			c-1.1-1.1-2.1-2.4-3-3.8l62-70c0,0,0,0.1,0.1,0.1c1.2,1.7,2.5,3.3,4,4.6l-62.7,69.5c-0.1-0.1-0.2-0.2-0.2-0.2c1.6,2,3.5,3.7,5.6,5
			l63-71c-3.3-1.9-5.4-3.7-5.6-3.8l0.8-0.9c0.1,0.1,8.3,6.8,17.2,8.2l1.7-1.9l0,0l6.6-7.5l0,0c0.4-0.5,0.7-1,0.8-1.6
			c-1.2,0.5-2.4,0.7-3.7,0.7C118.7,33.1,111.2,27.7,110.8,27.4z M103.6,12.2L103.6,12.2L103.6,12.2
			C103.6,12.2,103.6,12.2,103.6,12.2c0.2-0.2,0.6-0.4,1.2-0.4c0.8,0,2,0.2,3.5,0.9c2.9,1.2,6.2,3.4,9.4,6.2c2.5,2.2,4.5,4.4,5.9,6.4
			c0.1,3.2-5.7,2.7-9.4,2.1c-0.8-0.6-1.6-1.3-2.3-1.9C105.2,19.4,102.4,13.5,103.6,12.2z M34.4,99.5c-1-1.9-1.9-4-2.7-6.2l61.8-69.7
			c0.6,1.5,1.5,3.7,2.9,6.1L34.4,99.5z M103.7,34.7c-1.2-1.2-2.4-2.6-3.5-4.1c-2.8-3.9-4.2-7.9-4.7-9.4l5.3-6
			c1.1,3.8,4.8,8.5,9.2,12.3c0.1,0.1,0.2,0.1,0.2,0.2L103.7,34.7z"/>
		<path class="st1" d="M45.9,111.7c3,1.7,6.1,2.9,8.8,3.6l64.1-70.9c-3.7-0.7-7.1-2.2-10-3.7L45.9,111.7z"/>
	</g>
</g>
</svg>
